<!-- assets/svg/icons.svg -->
<svg xmlns="http://www.w3.org/2000/svg">
  <symbol id="lung" viewBox="0 0 64 64">
    <path d="M32 6c2 0 3 1 3 3v12c5 1 9 5 12 11 3 5 5 11 5 18 0 3-2 5-5 5-7 0-11-8-12-16-1 8-5 16-12 16-3 0-5-2-5-5 0-7 2-13 5-18 3-6 7-10 12-11V9c0-2 1-3 3-3z" fill="url(#g)"/>
  </symbol>
  <symbol id="star" viewBox="0 0 24 24">
    <path d="M12 2l3 6 6 .9-4.5 4.3L17.5 20 12 17l-5.5 3 1-6.8L3 8.9 9 8l3-6z"/>
  </symbol>
  <symbol id="news" viewBox="0 0 24 24">
    <path d="M3 4h14v14H3zM7 8h10M7 11h10M7 14h6" stroke="currentColor" fill="none"/>
  </symbol>
  <defs>
    <linearGradient id="g" x1="0" y1="0" x2="1" y2="0">
      <stop offset="0%" stop-color="oklch(60% 0.22 250)"/>
      <stop offset="50%" stop-color="oklch(70% 0.12 320)"/>
      <stop offset="100%" stop-color="oklch(60% 0.22 25)"/>
    </linearGradient>
  </defs>
</svg>